PathFileType	3	(X/Y/Z)	D:\Jess\PFP\Labelled\PA07\20250627\SRRun01.trc
DataRate	CameraRate	NumFrames	NumMarkers	Units	OrigDataRate	OrigDataStartFrame	OrigNumFrames
250.0	250.0	4	37	mm	250.0	35312	2501
Frame#	Time	C7			T10			CLAV			LSHO			RSHO			LASIS			RASIS			LPSIS			RPSIS			LILCR			RILCR			LGTR			LTHI			LLTHI			LLEP			LMEP			LPSH			LLSH			LDSH			LLMAL			LMMAL			LTOE			L5TH			LHEE			RGTR			RTHI			RLTHI			RLEP			RMEP			RPSH			RLSH			RDSH			RLMAL			RMMAL			RTOE			R5TH			RHEE			
		X1	Y1	Z1	X2	Y2	Z2	X3	Y3	Z3	X4	Y4	Z4	X5	Y5	Z5	X6	Y6	Z6	X7	Y7	Z7	X8	Y8	Z8	X9	Y9	Z9	X10	Y10	Z10	X11	Y11	Z11	X12	Y12	Z12	X13	Y13	Z13	X14	Y14	Z14	X15	Y15	Z15	X16	Y16	Z16	X17	Y17	Z17	X18	Y18	Z18	X19	Y19	Z19	X20	Y20	Z20	X21	Y21	Z21	X22	Y22	Z22	X23	Y23	Z23	X24	Y24	Z24	X25	Y25	Z25	X26	Y26	Z26	X27	Y27	Z27	X28	Y28	Z28	X29	Y29	Z29	X30	Y30	Z30	X31	Y31	Z31	X32	Y32	Z32	X33	Y33	Z33	X34	Y34	Z34	X35	Y35	Z35	X36	Y36	Z36	X37	Y37	Z37	

313	141.244	779.9417253743053	1446.394233631833	-826.6953500354786	784.495916000717	1188.876755841356	-771.2388548729616	812.88005292157	1333.506898541337	-962.969753561582	630.4751165575651	1420.81830085192	-909.1992332233967	947.5010774035505	1419.367503341378	-865.3493038888482	695.8060613648071	942.1185869279484	-908.3471436062588	901.9784018003633	959.0646763579181	-909.0432386580781	779.8660032637039	1017.265378234234	-757.1579439595655	821.7970858652516	1017.617819812547	-753.7845677951982	657.9170628965762	1018.453937428917	-886.2983036176228	958.3479153116025	1047.551688369069	-840.5249921636432	636.1762225585168	843.3074244944709	-817.2380686746167	706.6833699581284	668.5237177171942	-843.5159483830751	649.6265120470483	648.1520874987257	-744.3820359403861	659.1300099681714	532.7941006431868	-671.3690299338227	nan	nan	nan	718.8114630564099	418.6336330364302	-660.7856756328017	656.8468379857055	365.3542114576921	-541.7621655711283	718.1985185918918	272.0277874664843	-547.8917627793389	692.0306444233852	206.2747561362182	-448.3493479789633	nan	nan	nan	716.9576965649276	73.7827060000424	-528.1443340939592	679.4209277337393	63.52196652900547	-493.2459355731247	744.3018287151597	237.9187191463754	-376.6239668425476	982.5014623291189	862.4012752740448	-851.5520871221267	908.460194721056	750.4243997560884	-996.158164335509	958.074883463202	657.7860339748754	-941.1044959899733	938.128712927994	531.6507323279159	-956.0591133813375	nan	nan	nan	900.4433573446944	435.8750681657357	-1004.887575303401	940.8568020749162	331.8544319920967	-902.7498575716669	885.8346547844686	248.0591411686315	-937.9607306731747	903.8204437365004	158.0944648874516	-870.3063946629377	nan	nan	nan	908.218547220759	97.74951481074808	-1003.813960398527	940.5366103997751	66.72405018025471	-976.6071694756961	841.841760530025	147.5390592380944	-795.1251997482836	
314	141.248	780.5264465277808	1447.777509964955	-826.5819892320081	784.6499634800888	1190.317187066882	-771.7327589204491	813.7792786704625	1335.076922790347	-963.3118195871622	631.5032275464766	1422.38823740197	-910.1697088058706	948.1338807608691	1420.612508641108	-865.6690457658121	696.3763183802557	943.151471477174	-909.0926929527243	902.3986283422306	960.6645840454985	-909.4072076836562	779.7477788809639	1019.04267851511	-757.8991214296752	821.6756017509304	1019.441494871081	-754.40130456615	658.4988735838589	1020.210557755223	-887.7219241916025	958.5506549767163	1049.547281214992	-840.7263703625015	636.3155137874797	844.979250486542	-817.4040974713477	706.4682324258379	669.6371659454471	-842.4604212537465	649.6798937340488	650.1795149503397	-742.9078891152594	659.3964893197962	535.2467143676201	-669.2335768089501	nan	nan	nan	718.9214912638502	421.0657802278604	-657.5474014016651	656.7265966616111	368.9780298774491	-538.0395193924684	717.8825513884019	275.3985707510316	-543.3160506256355	691.6063352900331	210.8195146260855	-443.2351556799115	nan	nan	nan	716.7367014832417	75.87793598040068	-519.6474224271191	679.3468765621328	66.50355737483507	-484.3835644648301	743.6961321999428	244.6121674542492	-372.6232657183256	982.879598235256	864.1494255756639	-851.5574720378669	908.9633826630942	751.0479169955835	-995.5529575040423	958.1789308962166	658.6558530678898	-939.3043213253853	938.6870156907673	531.8786113311332	-954.3152772812306	nan	nan	nan	901.0307477102367	437.017096510824	-1005.52179108273	941.745759420425	329.4795342001124	-907.4797196661301	886.5835193596977	247.0319367348383	-945.7684106452322	904.686062132584	154.5483680843532	-881.7199591501471	nan	nan	nan	908.754272687002	99.64696421095974	-1017.525496395539	941.1177836266857	67.60123084202181	-991.7109170109243	842.9690148973552	140.9009112369607	-806.9515081516305	
315	141.252	781.1536815439736	1448.995308213666	-826.4345471079168	784.8573649854744	1191.635037418334	-772.1900665324212	814.6615281907031	1336.476025827682	-963.6593387135276	632.5228629483554	1423.795443067923	-911.1071744244795	948.7956138617117	1421.685871823483	-866.0043933982432	696.8876975708264	944.1078450299136	-909.7671965214786	902.7737425536967	962.0476025892431	-909.7695481905255	779.6663267681761	1020.671452833225	-758.5685750850477	821.5964509085854	1021.094935846947	-754.966638165846	659.063950421304	1021.800120311966	-889.0361913459036	958.7492073155842	1051.277134639409	-840.9567276867981	636.4555930991769	846.4995856016664	-817.6156793770958	706.4163131890167	670.6461842706019	-841.6972133780064	649.8233779326906	651.8996252166102	-741.8397582635668	659.7718219701403	537.3376543404573	-667.6391625367637	nan	nan	nan	719.1498321103857	423.1825574630908	-654.6867114895891	656.6577773935752	372.4387758923228	-534.6821802008321	717.6581581546297	278.6764422757826	-538.8742318333796	691.2029290439906	215.4078214736744	-438.1898747008107	nan	nan	nan	716.5539528959672	78.1937978958328	-511.2094613290669	679.2849568330835	69.70014659547861	-475.6263419147905	743.0820263704315	251.2928447254801	-368.6715305370846	983.2189133126114	865.6086535143353	-851.5901303613139	909.3953537149687	751.2157612089159	-994.7880943042421	958.3279831220262	659.1963489144881	-937.3471705748876	939.2704720187595	531.880488700636	-952.4721495945307	nan	nan	nan	901.5536373748404	437.992325095381	-1005.972912946875	942.6399397263724	327.1823473331646	-912.0835521906833	887.3150619971237	246.1511368300284	-953.3133469989933	905.5755436047283	151.3138540140947	-892.8898756366031	nan	nan	nan	909.2256423448775	101.848744506528	-1030.788966609401	941.6430066441666	68.83055102846795	-1006.412176269253	844.1771759794209	134.6171109638996	-818.5924563253992	
316	141.256	781.8235736414201	1450.046660466645	-826.2718407665801	785.115870953764	1192.824621146531	-772.6062256303795	815.5260412639469	1337.700174154888	-964.0104527243741	633.5311842074124	1425.037272353875	-912.0053507406978	949.4864392785732	1422.583694432739	-866.3549711024613	697.3368082224135	944.985774839649	-910.3689439916516	903.1002888047149	963.2112613073972	-910.1281671141289	779.6265419337758	1022.145283434218	-759.1606897450012	821.5649421460993	1022.57131385805	-755.4758550850012	659.6083636757514	1023.221385599134	-890.2284945259358	958.9457338010658	1052.73340157812	-841.221123463623	636.6023445880488	847.8550696280255	-817.8744962663694	706.5388584541766	671.5371747652898	-841.2394236261948	650.0663098066334	653.2918787267024	-741.1905191192189	660.2608098383628	539.0529790546832	-666.5835808500293	nan	nan	nan	719.494982830274	424.9737870087324	-652.1969834927015	656.6404913382298	375.7366836542014	-531.6830598730238	717.5240933220776	281.8646672187762	-534.5604648982893	690.8187650271257	220.0454805099089	-433.2078942371609	nan	nan	nan	716.4111659959086	80.73830410527627	-502.8355227754216	679.2324155648255	73.11261238563915	-466.9834222634224	742.4559903227851	257.9576916648367	-364.7553019122828	983.5225826246166	866.778952293426	-851.6490767067602	909.7492107540069	750.9365783408817	-993.8604122800012	958.5402277857868	659.4156190144503	-935.2662742303843	939.8831022262013	531.6722881409266	-950.5637643243266	nan	nan	nan	902.0116794616416	438.8076919726892	-1006.265512220783	943.5335286680371	324.9805047870854	-916.5441684303819	888.0239589312532	245.4138646369171	-960.5616100653609	906.4780919296078	148.3932167227479	-903.7466529106406	nan	nan	nan	909.6279195840273	104.3042004949382	-1043.534538121216	942.1023300778777	70.36262271620129	-1020.624758089187	845.4473249776819	128.7133936192231	-829.9673919060772	
